<svg width="100" height="30" viewBox="0 0 216 44" fill="none" xmlns="http://www.w3.org/2000/svg">
<path d="M124.483 35.9825V44H99.3105C90.0113 44 82.4085 37.0144 82.4085 28.3664V26.9852H77.445V18.9994H106.924C109.062 18.9994 110.799 17.4004 110.799 15.4363V11.5829C110.799 9.6165 109.06 8.01753 106.924 8.01753H95.0017C92.8642 8.01753 91.1273 9.61876 91.1273 11.5829V13.0707V14.0165C91.1273 14.8783 90.5017 15.5814 89.73 15.5814H83.8283C83.0588 15.5814 82.4333 14.8783 82.4333 14.0165V10.247C82.4333 5.48639 85.8667 1.30185 90.8122 0.195048C91.6515 0.00906884 92.5065 0 93.3503 0H108.558C114.588 0 119.495 4.59732 119.495 10.247V16.7404C119.495 22.3901 114.59 26.9874 108.558 26.9874H91.1295L91.1115 28.3687C91.1115 32.5918 94.7768 35.9847 99.2835 35.9847L124.483 35.9825Z" fill="#96CD32"/>
<path d="M49.9162 8.01979V42.4351C49.9162 43.2969 49.2885 44 48.5168 44H42.6128C41.841 44 41.2155 43.2992 41.2155 42.4351V1.56949C41.2155 0.705364 41.8433 0.00227026 42.6128 0.00227026H60.5835C69.8805 0.00227026 77.445 7.03773 77.445 15.688V42.5938C77.445 43.3717 76.7497 44 75.8925 44H70.3057C69.4507 44 68.7555 43.3695 68.7555 42.5938V15.6858C68.7555 11.4604 65.0902 8.02433 60.5835 8.02433L49.9162 8.01979ZM11.8057 8.01979H34.7085C35.5478 8.01979 36.2295 7.40062 36.2295 6.64082V1.38577C36.2295 0.623708 35.5793 0 34.7085 0H11.646C5.2245 0 0 4.8468 0 10.814V33.1837C0 39.1509 5.2245 43.9977 11.646 43.9977H34.7085C35.5478 43.9977 36.2295 43.3763 36.2295 42.6165V37.3637C36.2295 36.6016 35.5455 35.9825 34.7085 35.9825H11.8057C10.1205 35.9825 8.69625 34.6375 8.69625 33.0454V26.9058H22.3942C23.2335 26.9058 23.9153 26.2843 23.9153 25.5245V20.3829C23.9153 19.6208 23.2335 18.9994 22.3942 18.9994H8.69625V10.9569C8.69625 9.36474 10.1205 8.01979 11.8057 8.01979ZM216 28.8381C216 28.4412 215.998 28.033 215.957 27.5907C215.528 22.7031 210.533 19.0016 205.263 19.0016H192.199L191.864 18.9994C189.772 18.9994 188.071 17.1305 188.071 14.8353L188.084 11.846C188.084 9.7367 189.938 8.02206 192.215 8.02206H197.37L197.422 8.02433H210.451C211.117 8.02433 211.707 7.63423 211.921 7.05134C211.977 6.89711 212.004 6.75423 212.004 6.61588V1.40845C212.004 0.630513 211.309 0.00227026 210.451 0.00227026L190.125 0.00453359C184.234 0.00453359 179.372 4.48618 179.372 9.99072V16.221C179.372 22.1588 183.818 26.9874 189.281 26.9874H203.524C205.616 26.9874 207.299 28.8563 207.299 31.1538V32.1518C207.299 34.261 205.466 35.9734 203.189 35.9734H180.925C180.256 35.9734 179.667 36.3635 179.458 36.9419C179.399 37.1006 179.372 37.2435 179.372 37.3796V42.587C179.372 43.3649 180.067 43.9955 180.925 43.9955H199.147L205.328 43.9932C211.216 43.9932 215.995 39.5116 215.995 34.0025V28.8381H216ZM144.821 0H125.881C125.109 0 124.483 0.705364 124.483 1.56949V27.4433C124.483 28.3074 125.109 29.0082 125.879 29.0082H131.773C132.545 29.0082 133.171 28.3074 133.171 27.4433L133.18 8.01526L143.849 8.01979C148.356 8.01979 152.023 11.4581 152.023 15.6835V29.8134C152.023 34.0388 148.358 35.9643 143.849 35.9643L124.483 35.9847V44L143.849 43.9864C153.148 43.9864 160.713 38.4592 160.713 29.8111V15.5905C160.713 7.29402 153.805 0 144.821 0ZM174.389 27.7155L174.375 13.0072C174.375 12.1454 173.75 11.4423 172.978 11.4423H167.094C166.324 11.4423 165.697 12.1431 165.697 13.0072V27.7155L165.71 42.4237C165.71 43.2856 166.336 43.9887 167.107 43.9887H172.991C173.761 43.9887 174.389 43.2878 174.389 42.4237V27.7155ZM174.389 3.34309L174.375 1.56495C174.375 0.703091 173.75 0 172.978 0H167.094C166.324 0 165.697 0.700823 165.697 1.56495V3.34309L165.71 6.45711C165.71 7.31897 166.336 8.01979 167.107 8.01979H172.991C173.761 8.01979 174.389 7.31897 174.389 6.45711V3.34309Z" fill="#1423DC"/>
</svg>
