<svg aria-hidden="true" width="499" height="499" fill="none" xmlns="http://www.w3.org/2000/svg"><path d="M383.6 386c-41.9-58.6-44.8-157.6-44.8-157.6h-89.1c0 24.3-4.7 50.3-9.9 71.5H182l-43.6 75.8h133.2l63.3 10.4h48.7v-.1Z" fill="#fff"/><path d="m381.6 384.8-61.1-36.6-2.9-1.8-76.7-46c.1-.1.1-.2.1-.3v-.2h82.3L316 311h34.3c2.5 9.7 5.5 19.7 9.1 29.5.2.6.5 1.3.7 1.9 5.6 15.1 12.7 29.6 21.5 42.4ZM345.5 289.8H243.3c.3-1.3.6-2.6.8-3.8.1-.7.3-1.3.4-2 2.9-14.2 4.8-27.5 5.6-39.7h88.8c1.1 11 3 27.2 6.6 45.5Z" fill="#fff"/><path d="M338.8 228.4h-15s3.6 121.6 59.8 175h15c-56.2-53.5-59.8-175-59.8-175Z" fill="#DBF3F3"/><path d="M384.2 386.8c-.2.1-.4.2-.6.2-.3 0-.6-.1-.8-.4-.4-.6-.9-1.2-1.3-1.8-8.8-12.7-15.8-27.3-21.4-42.3-.2-.6-.5-1.3-.7-1.9.7-.1 1.3-.2 2-.4.2.6.5 1.3.7 1.9 5.8 15.5 13.1 30.4 22.4 43.3.3.5.2 1.1-.3 1.4Z" fill="#1423DC"/><path d="M181.5 300.7 161.4 335l8.8-125.5h4.5l.7 9.5 5.7 81c-.1.3.1.6.4.7Z" fill="#fff"/><path d="m181.5 300.7-9.8 16.5.8-98.2h2.9l5.7 81c-.1.3.1.6.4.7Z" fill="#DBF3F3"/><path d="m262.6 274-1.8-2.4-.9-1.2c-.5-.6-.9-1.2-1.4-1.8l-1.2-1.6c-.4-.6-.9-1.2-1.3-1.7l-5.9-7.6-11.5-14.5c-1.2-1.5-2.5-3.1-3.8-4.6-.4-.5-.9-1-1.3-1.6l-1.5-1.8c-.2-.3-.5-.6-.8-.9-.4-.5-.9-1.1-1.4-1.7-.3-.4-.6-.7-.9-1.1-.5-.6-1.1-1.3-1.6-1.9-1.9-2.3-3.8-4.6-5.9-7.1-.3-.4-.6-.7-.9-1.1-.9-1.1-1.8-2.2-2.8-3.4-.6-.8-1.3-1.5-2-2.3-1.3-1.6-2.7-3.2-4.1-4.9-.3-.3-.5-.6-.8-.9-1.3-1.5-2.7-2.7-4.1-3.7-.4-.3-.7-.5-1.1-.8-.9-.6-1.9-1.1-2.8-1.5-.4-.2-.8-.3-1.1-.5-.4-.2-.8-.3-1.1-.4-.4-.1-.8-.2-1.1-.3-.3-.1-.6-.1-.9-.2-.3-.1-.6-.1-.9-.2-.6-.1-1.1-.2-1.7-.2-.3 0-.6-.1-1-.1h-2.8c-2.2.1-4.4.5-6.5 1.1-.4.1-.8.2-1.3.4-.1 0-.2.1-.3.1.4 1.3.7 2.6.7 4.1 0 2.2-.6 4.3-1.6 6.1l55.2 49.7-60.7-44.6c-.7.3-1.5.6-2.3.8l77.9 57.2c.1.1.3.2.4.3.1.1.2.1.3.2.3.2.5.3.8.4.2.1.3.1.5.2.1 0 .2.1.4.1.1 0 .2 0 .2.1.2 0 .4.1.6.1H258.2c.2 0 .4 0 .7-.1h.1c.2 0 .4-.1.6-.2.4-.1.8-.2 1.2-.4.3-.1.5-.3.8-.4.1-.1.2-.2.4-.2.1-.1.2-.1.3-.2.5-.4 1-.9 1.4-1.4-.5-.5-.8-.9-1.1-1.4ZM191.3 98.9l-.3-.6c-.2-.4-.5-.7-.8-1-.1-.2-.3-.3-.4-.5-.3-.3-.7-.6-1-.8-.9-.6-2-1-3.2-1.1-6.5 15.6-10.9 26.5-15.3 37.8-4.3 11.2-8.6 22.8-14.7 39.5-4.6 12.6.9 21.5 7.6 27.4 2.3-2.6 5.6-4.3 9.4-4.3h.2c2.5 0 4.9.8 6.8 2.2.7.5 1.3 1 1.9 1.6L192 103c.1-1.5-.1-2.9-.7-4.1Zm-30 114.1-67.9 22.8 66.7-29.2c.1-.8.2-1.6.4-2.4L72.1 243c-3.7 1.6-5.4 5.9-3.8 9.6 4.2-.5 8.1-1 11.7-1.5.9-.1 1.8-.2 2.7-.4l3.9-.5c.8-.1 1.7-.2 2.5-.3l15.1-2.2c.7-.1 1.5-.2 2.2-.3l2.2-.3c6.2-1 12.5-2 19.6-3.2.5-.1 1.1-.2 1.6-.3.2 0 .3-.1.5-.1.7-.1 1.4-.2 2.1-.4 4-.7 8.2-1.4 12.9-2.2 1.6-.3 3.1-.5 4.8-.8.6-.1 1.1-.2 1.6-.3.4-.1.7-.2 1.1-.3h.1c.3-.1.6-.2.8-.2 3-.9 5.6-2.3 7.7-4 .2-.2.5-.4.7-.6.9-.8 1.8-1.7 2.5-2.6.1-.1.2-.3.3-.4.2-.3.4-.5.6-.8.2-.3.4-.6.6-1 .4-.6.8-1.3 1.1-2 0 0 0-.1.1-.1.2-.3.3-.6.4-.9.2-.3.3-.7.5-1 .1-.4.3-.7.4-1 .1-.4.2-.7.4-1.1.1-.4.2-.7.3-1.1.1-.3.1-.5.2-.8.2-.6.3-1.3.4-1.9-3.7-1-6.9-3.5-8.6-7Zm11.4-17.7c2.5 0 4.9.8 6.8 2.2l8.2-74.1-15 71.9Z" fill="#1423DC"/><path d="m187.7 123.4-8.2 74.1c-1.9-1.4-4.3-2.2-6.8-2.2l15-71.9Z" fill="#fff"/><path d="M190.2 97.3c.3.3.6.7.8 1-.3-.3-.6-.7-.8-1Z" fill="#1423DC"/><path d="m161.3 213-67.9 22.8 66.7-29.2c0 .3-.1.7-.1 1 .1 2 .5 3.8 1.3 5.4ZM238.4 263.4l-60.7-44.6c2.3-1.1 4.3-2.9 5.5-5.1l55.2 49.7Z" fill="#fff"/><path d="M104.2 247.7c-4.9.7-9.8 1.5-15.1 2.2l15.1-2.2ZM167.5 227.7c-.3.7-.7 1.3-1.1 2 .4-.7.7-1.3 1.1-2ZM250 257.7l-11.5-14.5c3.7 4.7 7.4 9.3 11.5 14.5Z" fill="#1423DC"/><path d="M250.9 299.9c-9.3 23.2-32.4 39.7-59.4 39.7-10.2 0-19.9-2.4-28.5-6.6l19.1-33.1h68.8Z" fill="#FFC328"/><path d="M279.6 375.6h-14.5l43.6-75.7h14.6l-43.7 75.7ZM232.1 375.6h-13.5l43.6-75.7h13.6l-43.7 75.7ZM185.4 375.6h-13.5l43.7-75.7h13.5l-43.7 75.7Z" fill="#DBF3F3"/><path d="M279.5 207.6c-1.8 3.3-3.3 6.7-4.6 10.2-1.1 3.2-2 6.4-2.5 9.6h-2.1c.6-3.5 1.5-7 2.7-10.3 1.4-3.6 2.9-7.1 4.7-10.4l1.8.9Z" fill="#4BC3C3"/><path d="m277.7 206.6 1.8 1c.8-1.6 1.8-3 2.6-4.6l-1.7-1.1c-.9 1.6-1.9 3.1-2.7 4.7Z" fill="#41A57D"/><path d="m280.4 201.9 1.7 1.1c2.8-4.4 5.9-8.7 9.2-12.7l-1.6-1.3c-3.3 4.1-6.5 8.4-9.3 12.9Z" fill="#96CD32"/><path d="m339.4 155.3.7 1.9c3.4-1.2 6.9-2.4 10.3-3.4l-.6-1.9c-3.5 1-7 2.1-10.4 3.4Z" fill="#41A57D"/><path d="m325.9 160.8.9 1.8 2.4-1.1 2.4-1-.8-1.9-2.4 1.1-2.5 1.1Z" fill="#fff"/><path d="m330.8 158.6.8 1.9c1.4-.6 2.8-1.2 4.2-1.7 1.4-.5 2.8-1.1 4.3-1.6l-.7-1.9c-1.5.5-2.9 1.1-4.3 1.6s-2.9 1.1-4.3 1.7Z" fill="#FFC328"/><path d="m313 167.9 1.1 1.7c2-1.4 4.1-2.5 6.2-3.7 2.1-1.1 4.3-2.3 6.5-3.3l-.9-1.8c-2.2 1-4.4 2.2-6.6 3.3-2.1 1.3-4.2 2.5-6.3 3.8Z" fill="#2382D2"/><path d="m349.8 151.8.6 1.9c6.3-1.9 12.7-3.5 19.1-5l-.4-2c-6.5 1.6-12.9 3.2-19.3 5.1Z" fill="#4BC3C3"/><path d="m369.1 146.8.4 2c1.8-.4 3.7-.8 5.6-1.2 1.9-.4 3.7-.8 5.6-1.1l-.4-2c-1.9.4-3.7.7-5.6 1.1-1.9.4-3.8.8-5.6 1.2Z" fill="#fff"/><path d="m380.3 144.5.4 2c3-.6 6-1.1 9-1.7l-.3-2c-3.1.5-6.1 1.1-9.1 1.7Z" fill="#96CD32"/><path d="m289.8 189 1.6 1.3c6.6-7.9 14.2-15 22.8-20.7l-1.1-1.7c-8.9 5.9-16.5 13.1-23.3 21.1Z" fill="#fff"/><path d="M348.6 295.2c-.2-.7-.3-1.4-.4-2.1-7.4-35.5-8.3-64.3-8.4-64.8 0-.6-.5-1-1-1h-89.1c-.6 0-1 .5-1 1 0 16.4-2.1 35-6.3 55.4-.1.7-.3 1.3-.4 2-.9 4.5-2 9.1-3.1 13.9-.1.5.2 1.1.7 1.2.4.1.9-.1 1.1-.5.1-.1.1-.2.1-.3v-.2h82.3L316 311h34.3c2.5 9.7 5.5 19.7 9.1 29.5.7-.1 1.3-.2 2-.4-5.6-15-9.7-30.4-12.8-44.9Zm-105.3-5.4c.3-1.3.6-2.6.8-3.8.1-.7.3-1.3.4-2 2.9-14.2 4.8-27.5 5.6-39.7h88.8c1 11.2 2.9 27.4 6.5 45.6H243.3v-.1ZM430.6 404.4H100.7c-.6 0-1-.4-1-1s.4-1 1-1h329.9c.6 0 1 .4 1 1s-.5 1-1 1ZM183 299.8c0 .5-.4 1-.9 1.1-.2 0-.4 0-.6-.1-.3-.2-.5-.4-.5-.8l-5.6-80.3v-.6l-.1-1.4-.6-8.1h-4.5l-.2 3.5-.1.7-.3 3.8-.1 2-.3 3.7-7.8 111.7-.1 2c0 .5-.5.9-1 .9h-.1c-.6 0-1-.5-.9-1.1l7.6-108 .7-9.9.2-2.1.3-3.9.3-4.4c0-.5.4-.8.8-.9H175.8c.5 0 1 .4 1 .9l.6 8.4.1 2.1.2 2.2 5.3 78.6Z" fill="#1423DC"/><path d="M324.1 299.4c-.2-.3-.5-.5-.9-.5h-46.3l.1-.2c.3-.5.1-1.1-.4-1.4-.5-.3-1.1-.1-1.4.4l-.7 1.2H182c-.4 0-.7.2-.9.5l-43.6 75.8c-.2.3-.2.7 0 1 .2.3.5.5.9.5h11.2v26.7c0 .6.4 1 1 1s1-.4 1-1v-26.7h43.5v26.7c0 .6.4 1 1 1s1-.4 1-1v-26.7h45v26.7c0 .6.4 1 1 1s1-.4 1-1v-26.7h35.5c.4 0 .7-.2.9-.5l43.6-75.8c.2-.3.2-.7 0-1Zm-50.6 1.5-15.9 28.3h-44.2l16.3-28.3h43.8Zm-90.9 0h44.8l-16.3 28.3h-44.8l16.3-28.3Zm-42.5 73.7 25-43.5h44.8l-25 43.5h-44.8Zm47.1 0 25-43.5h44.2l-24.5 43.5h-44.7Zm91.8 0h-44.8l24.5-43.5H304l-25 43.5Zm26.2-45.4h-45.4l15.9-28.3h45.7l-16.2 28.3Z" fill="#1423DC"/><path d="M396.2 402v.3H255.5c-.4-1.5-.6-3.1-.6-4.6 0-11.1 9.8-20.6 23.8-23.1.4-.1.7-.4.8-.8 1.5-6.1 5.9-11 11.7-13.5 2.8-1.2 5.9-1.9 9.1-1.9 8.2 0 15.5 4.2 19.2 11 .1.3.4.4.7.5h.5c2.5-.8 7.9-1.3 11.9-1.5h2.3c13.7 0 26.7 7.7 30.1 17.9.1.2.3.5.5.6.1.1.3.1.5.1h16.2c7.7 0 14 8.2 14 15Z" fill="#96CD32"/><path d="M365.5 386.9h-6c-4.4-10.4-15.2-16.9-26.9-18.4h2.3c13.7 0 26.7 7.7 30.1 17.9.1.2.3.4.5.5ZM320.1 370l-5.4 1.7s-5.7-12.1-23.5-11.3c2.8-1.2 5.9-1.9 9.1-1.9 8.2 0 15.5 4.2 19.2 11 .1.3.3.4.6.5ZM309.1 401.9v.5h-4.2v-.5c0-8.6-4-17.6-13.2-21.8 14.2 1.1 17.4 13.2 17.4 21.8Z" fill="#96CD32"/><path d="M382.2 385h-15.5c-4.1-10.6-17.6-18.5-31.8-18.5-3.7 0-10.4.5-14.1 1.4-4.1-7-11.9-11.3-20.5-11.3-10.7 0-20 6.7-22.6 16.3-14.6 2.9-24.8 13-24.8 24.9 0 2 .3 3.9.9 5.9.1.4.5.7 1 .7h142.4c.5 0 .9-.4 1-.9.1-.5.1-1 .1-1.4-.1-7.9-7.1-17.1-16.1-17.1Zm13.9 17.4H255.5c-.4-1.5-.6-3.1-.6-4.6 0-11.1 9.8-20.6 23.8-23.1.4-.1.7-.4.8-.8 1.5-6.1 5.9-11 11.7-13.5 2.8-1.2 5.9-1.9 9.1-1.9 8.2 0 15.5 4.2 19.2 11 .1.3.4.4.7.5h.5c2.5-.8 7.9-1.3 11.9-1.5h2.3c13.7 0 26.7 7.7 30.1 17.9.1.2.3.5.5.6.1.1.3.1.5.1h16.2c7.7 0 14 8.2 14 15 0 0 0 .2-.1.3ZM184.1 203.6c-.6-1.7-1.6-3.2-2.8-4.5-.6-.6-1.2-1.1-1.9-1.6-1.9-1.4-4.3-2.2-6.8-2.2h-.2c-3.7 0-7.1 1.7-9.4 4.3-1.2 1.3-2 2.9-2.5 4.7-.2.8-.4 1.6-.4 2.4 0 .3-.1.7-.1 1 0 1.9.4 3.7 1.2 5.4.2.3.3.7.5 1 .1.2.2.3.3.4.4.6.8 1.1 1.2 1.6l.9.9c.2.2.4.4.7.6.2.2.4.3.6.4.2.1.4.3.6.4.1.1.3.2.5.3.1.1.3.2.4.2 0 0 .1 0 .1.1.1.1.3.1.4.2.2.1.4.2.6.2.2.1.4.1.6.2.3.1.5.2.8.2.2 0 .4.1.6.1.8.1 1.5.2 2.3.2 1 0 2-.1 3-.4.7-.2 1.3-.4 1.9-.7.1 0 .2-.1.4-.2 2.3-1.1 4.3-2.9 5.5-5.1 1-1.8 1.6-3.9 1.6-6.1.1-1.4-.1-2.8-.6-4Zm-2.8 9.4c-1 1.6-2.4 3-4.1 3.8-.4.2-.9.4-1.4.6-.2.1-.4.1-.6.2-.7.2-1.3.3-2.1.4h-.7c-.7 0-1.3-.1-2-.2-.3-.1-.6-.1-.8-.2-.7-.2-1.3-.4-1.9-.8-2.1-1.1-3.7-2.9-4.7-5-.6-1.3-.9-2.7-.9-4.2 0-.7.1-1.3.2-2 .2-.9.5-1.7.8-2.5.4-.8.9-1.6 1.5-2.2 1.9-2.2 4.7-3.6 7.8-3.6h.5c2.4.1 4.6 1 6.3 2.5.7.6 1.3 1.3 1.8 2s.9 1.6 1.2 2.4c.4 1.1.6 2.2.6 3.4 0 2-.5 3.8-1.5 5.4Z" fill="#1423DC"/><path d="M182.8 207.6c0 2-.6 3.8-1.5 5.4-1 1.6-2.4 3-4.1 3.8-.4.2-.9.4-1.4.6-.2.1-.4.1-.6.2-.7.2-1.3.3-2.1.4h-.7c-.7 0-1.3-.1-2-.2-.3-.1-.6-.1-.8-.2-.7-.2-1.3-.4-1.9-.8-2.1-1.1-3.7-2.9-4.7-5-.6-1.3-.9-2.7-.9-4.2 0-.7.1-1.3.2-2 .2-.9.5-1.7.8-2.5.4-.8.9-1.6 1.5-2.2 1.9-2.2 4.7-3.6 7.8-3.6h.5c2.4.1 4.6 1 6.3 2.5.7.6 1.3 1.3 1.8 2s.9 1.6 1.2 2.4c.4 1.1.6 2.2.6 3.4Z" fill="#fff"/><path d="M169.1 207.6c-.2.6-.3 1.3-.3 1.9 0 1.3.4 2.6 1.2 3.6.3.4.6.7.9 1-.3 0-.6-.1-.9-.2-.7-.2-1.4-.5-1.9-1-1.8-1.2-2.9-3.3-2.9-5.6 0-3.8 3.1-6.9 6.9-6.9 2.9 0 5.4 1.8 6.4 4.4-1-.8-2.2-1.2-3.6-1.2-2.8-.1-5 1.6-5.8 4Z" fill="#DBF3F3"/><path d="M315.6 227.4h-2.2c-2.2-4.6-4.6-9.2-7.1-13.7-2.8-4.9-5.8-9.7-9-14.4l1.7-1.2c3.2 4.7 6.2 9.6 9.1 14.6 2.7 4.8 5.2 9.7 7.5 14.7Z" fill="#4BC3C3"/><path d="m297.3 199.3 1.7-1.1c-1.6-2.2-3.1-4.4-4.7-6.5l-1.6 1.2c1.6 2 3.1 4.2 4.6 6.4Z" fill="#41A57D"/><path d="m292.7 192.8 1.6-1.2c-4.8-6.4-10.1-12.5-15.8-18L277 175c5.7 5.5 10.9 11.5 15.7 17.8Z" fill="#96CD32"/><path d="M196.5 140.4v-2c-5.5.1-11.1.6-16.5 1.7l.4 2c5.2-1.1 10.6-1.7 16.1-1.7Z" fill="#41A57D"/><path d="m217.9 142.4.4-2c-2.7-.5-5.3-1-8-1.3l-.3 2c2.7.3 5.3.8 7.9 1.3Z" fill="#1423DC"/><path d="m210.1 141.1.3-2c-4.6-.6-9.2-.8-13.9-.8v2c4.5 0 9 .2 13.6.8Z" fill="#FFC328"/><path d="m238.7 148.9.8-1.9c-6.8-2.9-13.9-5.2-21.2-6.7l-.4 2c7.1 1.6 14.1 3.8 20.8 6.6Z" fill="#2382D2"/><path d="m180.3 142-.4-2c-4.9 1-9.8 2.4-14.5 4.2-4.7 1.8-9.2 4.1-13.5 6.8l1.1 1.7c4.1-2.6 8.6-4.8 13.1-6.7 4.6-1.6 9.3-3 14.2-4Z" fill="#4BC3C3"/><path d="m153 152.8-1.1-1.7c-2.4 1.6-4.8 3.3-7 5.2-2.2 1.9-4.4 3.9-6.3 6l1.5 1.4c1.9-2.1 4-4 6.1-5.8 2.1-1.9 4.4-3.6 6.8-5.1Z" fill="#1423DC"/><path d="m140 163.6-1.5-1.4c-3.2 3.4-5.9 7.3-8.2 11.4l1.8 1c2.2-3.9 4.9-7.6 7.9-11Z" fill="#96CD32"/><path d="m277 175 1.4-1.5c-11.3-11-24.4-20.2-39-26.5l-.8 1.9c14.4 6.2 27.3 15.2 38.4 26.1Z" fill="#1423DC"/><path d="m132.1 174.6-1.8-1c-2.8 5.1-4.7 10.6-6.1 16.2-1.4 5.6-2.2 11.3-2.3 17.1h2c.1-5.6.9-11.2 2.2-16.6 1.5-5.4 3.3-10.8 6-15.7Z" fill="#4BC3C3"/><path d="M124.1 207h-2c-.1 2.7.1 5.4.4 8.1l2-.2c-.4-2.6-.5-5.3-.4-7.9Z" fill="#41A57D"/><path d="m124.4 214.899-2 .2c.5 4 1.2 8 2.5 11.9.2.5.3 1 .5 1.4l.5 1.4c.4.9.7 1.9 1.1 2.8.9 1.8 1.7 3.7 2.7 5.4l1.8-1c-1-1.7-1.8-3.5-2.6-5.2-.4-.9-.7-1.8-1.1-2.7l-.5-1.4c-.2-.5-.3-.9-.4-1.4-1.4-3.7-2.1-7.6-2.5-11.4Z" fill="#96CD32"/><path d="m207.6 279.5-.4 2 8.2 1.4c2.7.5 5.5.7 8.2 1.1l.3-2c-2.7-.4-5.4-.7-8.1-1.1l-8.2-1.4Z" fill="#41A57D"/><path d="m186.6 274.5-.6 1.9 3.9 1.1c1.3.4 2.6.7 3.9 1l.5-2c-1.3-.3-2.6-.6-3.9-1l-3.8-1Z" fill="#1423DC"/><path d="m194.3 276.6-.5 2 3.3.8 1.7.4 1.7.4 6.8 1.3.3-2-6.7-1.3-1.6-.4-1.7-.4-3.3-.8Z" fill="#FFC328"/><path d="m166.1 266.8-.9 1.8 2.5 1.2c.8.4 1.7.8 2.5 1.1l5.2 2.1c1.7.6 3.5 1.2 5.2 1.8.9.3 1.7.6 2.6.9l2.7.8.6-1.9-2.6-.8c-.9-.3-1.7-.6-2.6-.9-1.7-.6-3.5-1.2-5.2-1.8l-5.1-2c-.9-.3-1.7-.7-2.5-1.1l-2.4-1.2Z" fill="#2382D2"/><path d="M242.5 283.799c-.1.7-.3 1.3-.4 2-1.2-.1-2.4-.099-3.5-.199-2.5-.2-5-.5-7.5-.7l-3.7-.4-3.7-.5.2-2 3.7.5 3.7.4c2.5.2 4.9.5 7.4.7 1.2 0 2.5.099 3.8.199Z" fill="#4BC3C3"/><path d="m131.5 237-1.8 1c1.9 3.5 4.3 6.699 6.9 9.799 2.7 3 5.5 5.801 8.6 8.301 6.1 5.1 13 9.1 20.1 12.5l.9-1.801c-7-3.3-13.7-7.299-19.7-12.299-3-2.4-5.7-5.2-8.3-8-2.5-3-4.9-6.1-6.7-9.5Z" fill="#1423DC"/><path d="m350.3 293.4-.3 2c-.4-.1-.9-.1-1.3-.2-.2-.7-.3-1.4-.4-2.1.6.1 1.3.2 2 .3Z" fill="#96CD32"/><path d="m408.7 328.1-.9-1.8c-4.8 2.5-9.9 4.4-15.1 6.1l.6 1.9c5.2-1.8 10.4-3.7 15.4-6.2Z" fill="#41A57D"/><path d="m417.2 310.6-1.3 1.5c.9.8 1.7 1.7 2.1 2.7.2.5.2 1 .2 1.5s-.2 1.1-.4 1.6l1.9.8c.2-.3.3-.7.4-1.1.1-.4.2-.8.2-1.2.1-.8 0-1.7-.3-2.4-.7-1.3-1.7-2.4-2.8-3.4Z" fill="#1423DC"/><path d="m419.5 318.9-1.9-.8c-.8 1.8-2.5 3.4-4.2 4.7-1.8 1.3-3.7 2.5-5.7 3.5l.9 1.8c2.1-1.1 4.1-2.2 6-3.7 1.9-1.5 3.8-3.1 4.9-5.5Z" fill="#FFC328"/><path d="m396.6 301.899-.5 2c3.5.9 7 2 10.4 3.3 1.7.6 3.4 1.3 5 2.2 1.6.8 3.1 1.7 4.4 2.8l1.3-1.5c-1.5-1.3-3.2-2.3-4.8-3.1-1.7-.9-3.4-1.6-5.1-2.2-3.6-1.4-7.1-2.5-10.7-3.5Z" fill="#2382D2"/><path d="m393.2 334.299-.6-1.9c-9.4 3.1-19.1 5.4-28.8 7.3l.4 2c9.8-2 19.5-4.3 29-7.4Z" fill="#4BC3C3"/><path d="M364.2 341.7c-.7.1-1.4.3-2.1.4-.7.1-1.3.3-2 .4-4.3.8-8.6 1.6-12.9 2.2l-.3-2c4.2-.7 8.3-1.4 12.5-2.2.7-.1 1.3-.2 2-.4.8-.2 1.6-.3 2.4-.5l.4 2.1Z" fill="#1423DC"/><path d="m347.2 344.7-.3-2c-4.5.7-9.1 1.4-13.6 1.9l.3 2c4.5-.5 9-1.2 13.6-1.9Z" fill="#96CD32"/><path d="m350.3 293.399-.3 2c7.8 1 15.5 2.2 23.2 3.6 7.7 1.4 15.4 2.9 22.9 4.9l.5-2c-7.6-2-15.3-3.6-23.1-5-7.7-1.3-15.5-2.4-23.2-3.5Z" fill="#1423DC"/><path d="m333.5 346.7-.3-2c-11.3 1.4-22.6 2.5-33.9 3.2l.1 2c11.4-.7 22.8-1.8 34.1-3.2Z" fill="#4BC3C3"/><path d="m299.5 349.8-.1-2c-2.7.2-5.3.3-8 .4l.1 2c2.6-.1 5.3-.2 8-.4Z" fill="#41A57D"/><path d="m291.4 350.3-.1-2c-7.9.4-15.9.5-23.8.5v2c8 0 16-.2 23.9-.5Z" fill="#96CD32"/><path d="M176.7 348.7h-16.5v2h16.5v-2Z" fill="#41A57D"/><path d="M198.4 348.7h-8v2h8v-2Z" fill="#1423DC"/><path d="M190.5 348.7h-13.8v2h13.8v-2Z" fill="#FFC328"/><path d="M220.5 348.7h-22v2h22v-2Z" fill="#2382D2"/><path d="M160.2 348.7h-29.9v2h29.9v-2Z" fill="#4BC3C3"/><path d="M130.3 348.7h-17.2v2h17.2v-2Z" fill="#1423DC"/><path d="M113.1 348.7H99.3v2h13.8v-2Z" fill="#96CD32"/><path d="M267.5 348.7h-47v2h47v-2Z" fill="#1423DC"/></svg>